PathFileType	4	(X/Y/Z)	Kaydara	
DataRate	CameraRate	NumFrames	NumMarkers	Units	OrigDataRate	OrigDataStartFrame	OrigNumFrames	
120.00	120.00	4	72	mm	120.00	98	261	
Frame#	Time	Hips			RightUpLeg			RightLeg			RightFoot			RightFoot_End			LeftUpLeg			LeftLeg			LeftFoot			LeftFoot_End			Spine			Spine1			Spine2			Spine3			Neck			Head			Head_End			RightShoulder			RightArm			RightForeArm			RightHand			RightHandThumb1			RightHandThumb2			RightHandThumb3			RightHandThumb3_End			RightInHandIndex			RightHandIndex1			RightHandIndex2			RightHandIndex3			RightHandIndex3_End			RightInHandMiddle			RightHandMiddle1			RightHandMiddle2			RightHandMiddle3			RightHandMiddle3_End			RightInHandRing			RightHandRing1			RightHandRing2			RightHandRing3			RightHandRing3_End			RightInHandPinky			RightHandPinky1			RightHandPinky2			RightHandPinky3			RightHandPinky3_End			LeftShoulder			LeftArm			LeftForeArm			LeftHand			LeftHandThumb1			LeftHandThumb2			LeftHandThumb3			LeftHandThumb3_End			LeftInHandIndex			LeftHandIndex1			LeftHandIndex2			LeftHandIndex3			LeftHandIndex3_End			LeftInHandMiddle			LeftHandMiddle1			LeftHandMiddle2			LeftHandMiddle3			LeftHandMiddle3_End			LeftInHandRing			LeftHandRing1			LeftHandRing2			LeftHandRing3			LeftHandRing3_End			LeftInHandPinky			LeftHandPinky1			LeftHandPinky2			LeftHandPinky3			LeftHandPinky3_End			
		X1	Y1	Z1	X2	Y2	Z2	X3	Y3	Z3	X4	Y4	Z4	X5	Y5	Z5	X6	Y6	Z6	X7	Y7	Z7	X8	Y8	Z8	X9	Y9	Z9	X10	Y10	Z10	X11	Y11	Z11	X12	Y12	Z12	X13	Y13	Z13	X14	Y14	Z14	X15	Y15	Z15	X16	Y16	Z16	X17	Y17	Z17	X18	Y18	Z18	X19	Y19	Z19	X20	Y20	Z20	X21	Y21	Z21	X22	Y22	Z22	X23	Y23	Z23	X24	Y24	Z24	X25	Y25	Z25	X26	Y26	Z26	X27	Y27	Z27	X28	Y28	Z28	X29	Y29	Z29	X30	Y30	Z30	X31	Y31	Z31	X32	Y32	Z32	X33	Y33	Z33	X34	Y34	Z34	X35	Y35	Z35	X36	Y36	Z36	X37	Y37	Z37	X38	Y38	Z38	X39	Y39	Z39	X40	Y40	Z40	X41	Y41	Z41	X42	Y42	Z42	X43	Y43	Z43	X44	Y44	Z44	X45	Y45	Z45	X46	Y46	Z46	X47	Y47	Z47	X48	Y48	Z48	X49	Y49	Z49	X50	Y50	Z50	X51	Y51	Z51	X52	Y52	Z52	X53	Y53	Z53	X54	Y54	Z54	X55	Y55	Z55	X56	Y56	Z56	X57	Y57	Z57	X58	Y58	Z58	X59	Y59	Z59	X60	Y60	Z60	X61	Y61	Z61	X62	Y62	Z62	X63	Y63	Z63	X64	Y64	Z64	X65	Y65	Z65	X66	Y66	Z66	X67	Y67	Z67	X68	Y68	Z68	X69	Y69	Z69	X70	Y70	Z70	X71	Y71	Z71	X72	Y72	Z72	

98	0.808	7081.203	893.81699	129.612	7170.737906240843	901.7105920290547	93.63204427895728	7058.42288825929	502.03250962850336	36.60457340987597	7041.4128072787225	111.36800610108176	24.351040751144964	6926.717420375019	42.553095330051775	163.66659379283954	7004.048008435562	860.0418514411153	179.60082770135713	6898.530255488563	471.8866698442464	295.88780157441147	6780.788739479965	80.91836174517597	465.7977229521141	6634.910594441877	36.01501441318014	351.3990463226051	7022.361483442087	1013.168143231314	77.6243798391395	6965.240077051706	1074.014750153779	28.261993215913296	6902.07825514515	1131.2443814652709	-25.98304796167846	6837.204188830491	1176.1720697076612	-82.50875995729722	6766.127951986976	1225.500009368843	-139.77929491904186	6691.738373333777	1263.4389253199313	-183.6004908022042	6552.686007022602	1340.769501201649	-195.67715366106677	6813.280309794487	1224.7171067034012	-135.4110691078851	6900.735739094611	1278.2732202355378	-202.55590024649194	7016.839432685593	1075.477502317676	-302.52334754768646	7207.014859052074	992.1466948389399	-413.8116999405099	7217.12714762385	1009.665663064535	-434.7875021825302	7217.171214719225	1011.8344553833442	-463.9670405235104	7218.8640522582755	1009.8035097592625	-483.86597729857635	7221.697216258721	1005.0809140434138	-500.0941082896147	7225.827195062845	999.2001022913915	-434.59112388195234	7252.8864843844585	994.152054557469	-467.42294558201866	7262.02794380107	987.3183397157521	-493.52477353306585	7258.939123958885	984.5234553200213	-509.33433453616607	7250.465485815582	983.1906489634101	-522.13799083015	7228.94560353963	989.5862151940314	-432.4561118604984	7257.027930819895	979.4632916878156	-463.3235273811301	7267.314675590248	970.7500448191201	-491.4216709820562	7263.737628285172	966.7752601201109	-510.31098311998903	7254.538601015083	965.0238556259055	-524.2308866856116	7230.572879490604	982.9323862758312	-430.0806454961094	7257.488235931773	968.1122045138201	-455.59630803116033	7266.72715650433	959.2494812063023	-479.6458024488342	7263.421745879683	954.7419883391736	-497.63186931610016	7254.8410125452065	952.7760763548523	-510.6091164311452	7230.761429823057	975.3343828773675	-426.62216002636876	7255.957665383413	957.0877282157103	-447.8052327617232	7263.66346819245	948.0767737333583	-466.2641838624112	7261.401292944321	943.8631166270079	-478.9967983280287	7253.885796537227	941.5887864405512	-490.27009265697495	6766.152970008899	1191.9399916577486	-106.74529746581905	6698.995301893603	1092.3491558434448	-66.36189401984589	6912.88703378374	1027.8351745691493	-192.24438302406685	7131.2503526115215	994.1173877059634	-308.9219171117242	7146.281490493446	1016.461147191244	-320.9877544700035	7176.67423859007	1025.5462707783888	-314.85029574028584	7199.935557343549	1028.330349464989	-310.2750108851516	7221.120414699185	1027.6205404494513	-306.2031612192555	7154.626139991794	1006.3060498217077	-322.99356950129527	7200.495683258331	1009.6498358368387	-334.81329051028905	7235.339984625537	1009.3333043660281	-332.4711195353811	7253.340916175268	1010.3119672412602	-324.54260192156096	7265.770316118093	1011.9148872066378	-313.6143456805223	7158.868829982284	996.4281674151375	-321.26078482776387	7205.902639793912	994.3473988488327	-331.855134811388	7244.3393856966595	992.6844852490774	-329.01918382931257	7266.255827021352	993.2329771867737	-319.31925642241	7279.952568882014	994.6795091183558	-307.2963868540707	7160.688912834757	989.3684622592233	-319.84263802676537	7204.400496808066	981.3880636187181	-328.4212963643517	7238.251903075729	978.5952618385577	-325.6452158749251	7259.57780520579	978.4109035727568	-316.1272717450756	7272.544213432529	979.4329369637444	-304.7461654716896	7161.511796165045	981.100644787172	-317.0174068019171	7202.102904839887	968.6996635753337	-323.50911284172065	7229.565009125469	964.4022011304619	-320.7732504801315	7245.2920076716155	963.2707144099642	-313.58272412604896	7256.87701070659	963.6022716218804	-303.3581312454594
99	0.817	7081.203	893.81699	129.612	7170.5981267301195	901.6170036454059	93.69364068267454	7058.185643095913	501.9137655216124	37.04334387683227	7041.706675309196	111.42905050115354	24.58695348946797	6927.153459468059	42.54425687365602	163.93062272572672	7004.159744662701	860.1245527990657	179.5468082411168	6898.589558739568	472.00379354769683	295.89430088181626	6780.747569461217	81.09525139249618	465.8696433350779	6634.91152281816	36.238408672463706	351.3903001587355	7022.4972418306	1013.211362970053	77.57441367848891	6965.4529916299525	1074.1189099715693	28.19402952585782	6902.371349529986	1131.4240634712814	-26.069521992427404	6837.574878753575	1176.4469019978596	-82.61618262932008	6766.576992420524	1225.869805976801	-139.90838587541322	6692.226705226563	1263.8773195976528	-183.72270294868304	6553.169360255053	1341.1934269658443	-195.82202020226075	6813.67543976747	1225.0614050235927	-135.4737433039675	6901.117981126862	1278.7909518443419	-202.32293234052656	7017.655064278956	1076.4666365844005	-302.4228231074945	7208.013460691859	994.0005415059179	-414.0257935961569	7218.250496977076	1011.7431756373312	-434.9348280343008	7218.414732097619	1014.0784899558657	-464.211263118735	7220.180883687002	1012.1508678983153	-484.19372591192877	7223.06629437437	1007.503593382684	-500.5052168064384	7226.9238364041885	1001.2582201185701	-434.7776147988696	7254.098722112667	996.4520636009355	-467.6797602263509	7263.325840617859	989.7578173717666	-493.89587363555154	7260.2926159192175	987.0253255525714	-509.79382631828014	7251.866572838534	985.7277602904583	-522.682341044716	7230.010262038498	991.600156706344	-432.6869066999355	7258.188037551586	981.6892798918684	-463.64685924875687	7268.56366490732	973.1215713817544	-491.8754103386691	7265.051489194354	969.2188699795558	-510.8740987714382	7255.903469144828	967.5044743206777	-524.8881824333291	7231.61189451646	984.9092031201027	-430.34040187719353	7258.590245255144	970.2475871343152	-455.96254331070776	7267.901796956192	961.5045819818286	-480.13138685192934	7264.656390209428	957.0628307443423	-498.22597519595155	7256.12239870812	955.1299210906191	-511.29320614353827	7231.768310472904	977.2593667445869	-426.91754926701924	7257.002222589264	959.1271385710262	-448.21844653739413	7264.758361943358	950.2002272741543	-466.7813776606549	7262.536169129768	946.0288033550233	-479.5972161543836	7255.059900301286	943.780416496992	-490.952562755941	6766.604750570029	1192.2749979323085	-106.92743552804416	6699.414690864891	1092.77718144949	-66.85627921441146	6913.248892267332	1028.6891257427933	-192.4901479022801	7131.619495171693	995.606253934385	-308.962186640212	7146.715862457905	1018.1090150586663	-320.90073532816035	7177.08528893961	1027.2578786169674	-314.6218847836639	7200.323519416535	1030.0782214517203	-309.96015469250943	7221.483271620508	1029.3916940507775	-305.8265222226034	7155.049761811912	1007.9491346674861	-322.94139802981704	7200.943341148762	1011.4562375177029	-334.64953568089425	7235.7626513931555	1011.2012647889001	-332.2113518394967	7253.728859389011	1012.1835496310135	-324.21193135424824	7266.116576677986	1013.7660955763024	-313.2174261028143	7159.271009349807	998.0409948319825	-321.2443169473069	7206.316676928603	996.1031691563498	-331.74914919201376	7244.723193186191	994.5028411853344	-328.813479129944	7266.596321636322	995.0535014864627	-319.0304332858422	7280.2467647468275	996.4766703597697	-306.9362533885359	7161.075713408977	990.9562535200531	-319.85448497705653	7204.785696731658	983.0837143788913	-328.3782073196553	7238.607707040882	980.340542956552	-325.52051130773486	7259.890211935788	980.1556636600153	-315.9252074427732	7272.812320663089	981.1544917624242	-304.47838526314365	7161.877153400861	982.6508445229284	-317.06320800960157	7202.454869264114	970.3273748279821	-323.5262384921624	7229.888683740357	966.0615054629583	-320.73352784285913	7245.5817301326815	964.9256966776817	-313.49068982799974	7257.126168458556	965.2344291447095	-303.2102514470701
100	0.825	7081.203	893.81699	129.612	7170.446804517538	901.5166818667543	93.75032242516403	7057.943578911033	501.78763878262487	37.47561617213846	7042.009143786824	111.4902273788706	24.797400271901715	6927.603960023621	42.53084584049625	164.16858954276097	7004.283173533369	860.2140477358813	179.4976399375507	6898.661195612581	472.12679790091437	295.90268913309933	6780.722792524932	81.27121108498201	465.92314942795156	6634.929005503427	36.45504167636848	351.3663237336243	7022.63384118393	1013.2545157168236	77.52388729060772	6965.666621172748	1074.2231336166042	28.125996787580398	6902.664844142874	1131.6039796618709	-26.155258357994676	6837.945240118529	1176.722070208845	-82.72152067519752	6767.0251613055925	1226.2400421252923	-140.03423809685293	6692.715281941335	1264.317463542597	-183.8418133101287	6553.6530403173565	1341.6192430436693	-195.96252052757492	6814.066446136882	1225.4010976638124	-135.53433860403547	6901.480890288438	1279.2831117573423	-202.0865000728224	7018.4326957499425	1077.4365580891783	-302.2813639101594	7208.932051800814	995.8196966032021	-414.1679464996022	7219.290133477921	1013.781319813547	-435.00802877292756	7219.572199884787	1016.280362386651	-464.3744448063509	7221.409935441953	1014.4544123866443	-484.4352016675503	7224.346062597979	1009.8813338362036	-500.825335118247	7227.935812228449	1003.2774216964191	-434.8885854705668	7255.219858130992	998.7085392521515	-467.85276075960553	7264.529463061692	992.1514719534339	-494.1758080141612	7261.551161238118	989.4805748089343	-510.1576969444755	7253.173033791016	988.2180122001964	-523.1274599575207	7230.990261589145	993.5761863463086	-432.8412639923788	7259.25721084688	983.8733958054133	-463.8851682635445	7269.718282156804	975.44887581035	-492.23600866409555	7266.27017818959	971.6173664031735	-511.3386519590195	7257.1735215799645	969.9397533621118	-525.4429431441446	7232.566404260275	986.8489271338578	-430.52329595756436	7259.602214975246	972.3430140904029	-456.2438875796197	7268.983434629869	963.7178372354679	-480.5249195796209	7265.797278277155	959.3410519508661	-498.7227549490608	7257.310372091028	957.4409717584481	-511.8762131620513	7232.69116928363	979.148401491831	-427.13573497538937	7257.95792681266	961.1286495399177	-448.5469190206289	7265.762107121705	952.2845275731049	-467.2079987533925	7263.5793844979335	948.1548965753693	-480.103166944256	7256.142669012653	945.93237214796	-491.53721099001615	6767.059194901949	1192.615552919015	-107.10566602996269	6699.8493966178075	1093.2305985520484	-67.33900766693665	6913.597244524995	1029.543811350635	-192.69999053233403	7131.938448422799	997.0698143932566	-308.9467774109553	7147.0958720031485	1019.7268809723626	-320.75940370633015	7177.437645312637	1028.9362282131992	-314.34284243862754	7200.649670734049	1031.7907779374627	-309.59677481213544	7221.781633673527	1031.125997114076	-305.4027267015237	7155.418182824437	1009.5623831635412	-322.833029408721	7201.32818310914	1013.2273428532366	-334.4287296328641	7236.117715781669	1013.0309723150638	-331.89594731842163	7254.047178632374	1014.0157560683022	-323.82804346390094	7266.392183595728	1015.5774807513559	-312.77033071907186	7159.6180045884375	999.6247883224175	-321.1705373864685	7206.6681112476745	997.825013813193	-331.5844154358483	7245.039202434255	996.2841699267987	-328.55042789759415	7266.866592254454	996.8357034798672	-318.68711462464097	7280.469616394802	998.2350490094625	-306.52491929727825	7161.407528583995	992.5157088263335	-319.80823107887187	7205.109413554553	984.7472269122766	-328.2749761294705	7238.897539477309	982.0511177271055	-325.336743848193	7260.1343285073945	981.8645399611192	-315.66675465871924	7273.011094495385	982.8397640154873	-304.1572787775305	7162.188033033058	984.1737360953246	-317.05020904265376	7202.746682265792	971.9248946070552	-323.48218128470114	7230.14870344233	967.6887894312874	-320.633273505571	7245.806150326529	966.5479098332062	-313.33997148762234	7257.309125046196	966.8335276725348	-303.00634090528075
101	0.833	7081.203	893.81699	129.612	7170.2838196774355	901.4095654434071	93.80201993825703	7057.696666903909	501.6540608501543	37.901267928099514	7042.320266407965	111.55153685031883	24.982064714027054	6928.069029340787	42.51281617045439	164.38016881745978	7004.418421208076	860.3103989072381	179.45338880548354	6898.745297575917	472.2557296893376	295.91297976499004	6780.7145951717275	81.44619938026594	465.9580122476378	6634.963208026934	36.664811989100826	351.3269518998137	7022.771270603235	1013.2975971161632	77.47280928975913	6965.880939359378	1074.3274115530348	28.05791726194049	6902.9586943485165	1131.7841138879712	-26.240217472017477	6838.315205635064	1176.9975482285881	-82.82471158738751	6767.47237068796	1226.6106817810212	-140.15676763296548	6693.2040223074755	1264.759328599035	-183.9577371148817	6554.136966768598	1342.0469241170983	-196.09854060156707	6814.453209949398	1225.7360960141448	-135.59279619573664	6901.824166239858	1279.749367144664	-201.84657618737282	7019.171729904767	1078.3869386592164	-302.09852769610495	7209.769539481209	997.6034735466524	-414.2373099054714	7220.244917644647	1015.7793207465065	-435.00624839737475	7220.642443122094	1018.4392314541732	-464.4556437506937	7222.550006573433	1016.7132597970526	-484.58939506243905	7225.535297213	1012.2132202288409	-501.05339055923207	7228.861971722387	1005.2569360696806	-434.9231560273087	7256.2486589653145	1000.9206069664776	-467.9409684338754	7265.637533228435	994.4983697188349	-494.3635019334856	7262.71346903746	991.8882443853353	-510.42481118728455	7254.383576936942	990.6604333151026	-523.4721617209824	7231.8844513829445	995.513548304611	-432.91828455259304	7260.234219270972	986.0147907699371	-464.0374483574506	7270.777247706999	977.7310472009699	-492.5023528869836	7267.392400123386	973.9698094994866	-511.703455544543	7258.347462300771	972.3287395397375	-525.8939257646402	7233.435259868256	988.7508157265893	-430.62841763349746	7260.522925216377	974.3976706886161	-456.43932606669784	7269.970808061268	965.8883805706578	-480.8252904505519	7266.843133875734	961.5757589557588	-499.1210258112592	7258.403655772464	959.7083234739589	-512.3569016081389	7233.528863292372	981.0007637516866	-427.27579571567077	7258.82357302541	963.091483019828	-448.78962644397353	7266.6734663633	954.3288594197611	-467.5429440797033	7264.529691398496	950.2405637479321	-480.5134932952922	7257.132854657272	948.0438115238003	-492.02283210087654	6767.5162587506	1192.9616809417496	-107.27989093062577	6700.299533221907	1093.7096349263372	-67.8098581498312	6913.931881809795	1030.3991425198953	-192.87345469440717	7132.20657709546	998.5075709044047	-308.8750580315099	7147.420835266436	1021.3141742366785	-320.5631677342911	7177.730579919476	1030.5807056406736	-314.0126402655197	7200.913251629495	1033.4673773892398	-309.1843797602938	7222.01471351691	1032.8227872301063	-304.9313078067579	7155.7307082693	1011.1452234908126	-322.66784520126726	7201.649426607639	1014.9624916036165	-334.1502656769296	7236.404343944343	1014.8217234915121	-331.5243305395556	7254.295021375034	1015.8078711150064	-323.3903998871329	7266.596277793133	1017.3483274109776	-312.27256374476787	7159.909120958957	1001.1789868134674	-321.03880876728215	7206.956162410466	999.5122913107829	-331.36029737115905	7245.286577405064	998.0277845383248	-328.22942555923566	7267.065780442737	998.5788826013238	-318.28873938470525	7280.620258298306	999.9539450331681	-306.06186953002236	7161.683665750078	994.0462767663004	-319.7032249932777	7205.37087943378	986.3779855594805	-328.1109395998613	7239.120584440525	983.7263327914882	-325.0932752811358	7260.3093176072725	983.536866975815	-315.3513157942679	7273.139691056753	984.4880891991627	-303.78229102647947	7162.443748434068	985.6687832645246	-316.97774433055196	7202.977591453962	973.4916364416845	-323.3762550686621	7230.344278341973	969.2834396137517	-320.4718173751994	7245.964463270368	968.1367331647976	-313.1299267296303	7257.425069960028	968.3989482598995	-302.7457938924724
